<?xml version="1.0" encoding="utf-8"?>
<!-- Generator: Adobe Illustrator 24.3.0, SVG Export Plug-In . SVG Version: 6.00 Build 0)  -->
<svg version="1.1" id="Layer_1" xmlns="http://www.w3.org/2000/svg" xmlns:xlink="http://www.w3.org/1999/xlink" x="0px" y="0px"
	 viewBox="0 0 1000 1000" style="enable-background:new 0 0 1000 1000;" xml:space="preserve">
<style type="text/css">
	.st0{fill:#e05c0b;}
</style>
<g>
	<g transform="translate(0.000000,512.000000) scale(0.100000,-0.100000)">
		<path class="st0" d="M4599.3,5006.4C3746,4910.5,2946.5,4527,2344.4,3925c-703.7-701.8-1102.5-1656.6-1102.5-2634.5V1045
			l-105.5-70.9C820,765.1,563.1,377.8,473-24.9C436.6-184,436.6-977.8,473-1137c138.1-613.6,592.5-1085.2,1188.8-1238.6
			c80.5-21.1,237.8-42.2,352.8-49.9l205.2-11.5v1852.2v1854.1h-138.1c-126.5-1.9-341.3-30.7-483.2-67.1l-55.6-15.3l13.4,218.6
			c57.5,947.2,410.3,1716.1,1079.5,2356.5c460.2,441,1035.4,742,1693,885.8c178.3,38.3,255,42.2,661.5,44.1
			c515.8,0,676.8-23,1079.5-155.3c1171.5-383.5,2057.3-1382.4,2304.7-2598.1c32.6-161.1,84.4-724.8,69-742
			c-3.8-1.9-61.3,9.6-128.4,24.9c-67.1,17.3-214.7,34.5-327.9,42.2l-207.1,11.5v-1856v-1856l207.1,11.5
			c113.1,7.7,256.9,26.9,320.2,42.2s120.8,26.8,130.4,28.8c53.7,1.9-53.7-427.6-164.9-661.5c-232-479.3-640.4-832.2-1154.3-993.2
			c-207.1-65.2-435.3-90.1-818.7-90.1h-322.1l-36.4,72.9c-21.1,40.3-72.9,105.5-117,145.7c-153.4,138-141.9,136.1-901.2,136.1
			s-747.8,1.9-901.2-136.1c-124.6-113.1-163-201.3-163-381.6c0-120.8,9.6-170.7,42.2-232c53.7-101.6,141.9-189.8,243.5-243.5
			c76.7-42.2,94-42.2,778.5-42.2c688.3,0,701.8,0,780.4,42.2c103.5,55.6,201.3,157.2,245.4,255l34.5,76.7h396.9
			c442.9,0,623.1,23,889.7,113.1c770.8,262.7,1336.4,926.1,1478.3,1735.2c15.3,93.9,28.8,214.7,28.8,268.4
			c0,95.9,1.9,99.7,88.2,153.4c301,189.8,571.4,600.1,661.5,999c36.4,159.1,36.4,952.9,0,1112.1c-90.1,402.7-347.1,790-663.4,999
			l-105.5,70.9v195.6c0,864.7-278,1670-814.9,2358.4c-161.1,207.1-536.9,565.6-759.3,722.9c-464,331.7-997,554.1-1551.2,650
			C5375.8,5015.9,4844.7,5035.1,4599.3,5006.4z M1893.8-580.9V-2086h-44.1c-78.6,0-247.4,59.4-406.5,140
			c-226.2,117-418,314.5-535,550.3c-132.3,268.4-151.5,385.4-140,882C777.8-51.6,789.3,4,921.6,262.8
			c105.5,203.2,312.5,412.2,512,515.8c159.1,84.4,326,143.8,408.4,143.8l51.8,1.9L1893.8-580.9L1893.8-580.9z M8299.8,893.6
			c339.4-99.7,638.5-349,791.9-663.4c128.5-258.8,151.5-406.5,140-897.3c-9.6-441-21.1-502.4-153.4-757.4
			c-109.3-209-312.5-412.2-521.5-521.5c-157.2-80.5-327.9-140-406.5-140h-44.1v1505.1V924.2h44.1
			C8175.2,924.2,8242.3,910.8,8299.8,893.6z M5575.2-4093.6c134.2-78.6,126.5-278-13.4-349c-28.8-13.4-235.8-21.1-638.5-21.1
			c-632.7,0-680.7,5.7-728.6,94c-47.9,90.1-11.5,222.4,72.9,276.1c46,26.9,126.5,32.6,651.9,32.6
			C5446.7-4061,5527.3-4064.8,5575.2-4093.6z"/>
		<path class="st0" d="M2354-580.9v-1850.3h163h163v1850.3v1850.3h-163h-163V-580.9z"/>
		<path class="st0" d="M7320-580.9v-1850.3h163h163v1850.3v1850.3h-163h-163V-580.9z"/>
	</g>
</g>
</svg>
